<svg width="300" height="300" viewBox="0 0 300 300" fill="none" xmlns="http://www.w3.org/2000/svg">
<g clip-path="url(#clip0_330_17)">
<circle cx="150" cy="150" r="150" fill="black"/>
<path d="M68.9894 89.1888C62.2306 90.0373 55.0913 92.7584 49.0932 96.7376C45.8454 98.8735 40.8713 103.701 38.5599 106.92C35.3414 111.484 33.0884 116.722 31.801 122.808C31.2451 125.412 31.128 126.787 31.128 131.878C31.0988 138.52 31.5962 141.885 33.2932 147.122C38.1795 162.073 51.668 172.431 68.9894 174.567C70.3353 174.743 72.0324 174.889 72.7053 174.889H73.9635V131.878V88.8669L72.442 88.8962C71.5935 88.9254 70.0428 89.0425 68.9894 89.1888Z" fill="white"/>
<path d="M76.8894 131.849V174.889H78.1475C81.4538 174.889 87.2179 173.865 91.3142 172.519C103.896 168.452 113.668 158.972 117.56 147.122C119.257 141.885 119.754 138.52 119.725 131.878C119.725 126.787 119.608 125.412 119.052 122.808C117.764 116.722 115.512 111.484 112.293 106.92C109.982 103.701 105.007 98.8735 101.76 96.7376C95.0594 92.2902 87.1886 89.5399 79.6105 88.9839L76.8894 88.7791V131.849Z" fill="white"/>
<path d="M124.582 132.317V172.548H135.7H146.819L146.877 150.692L146.965 128.835L163.935 150.633L180.935 172.402L190.795 172.49L200.656 172.548V132.317V92.0854H189.537H178.419L178.36 113.211L178.272 134.336L161.887 113.269L145.473 92.2317L135.027 92.144L124.582 92.0854V132.317Z" fill="white"/>
<path d="M205.045 132.317V172.548H237.522H270V163.039V153.53H248.641H227.282V132.317V111.104H248.641H270V101.595V92.0854H237.522H205.045V132.317Z" fill="white"/>
<path d="M230.208 132.317V141.826H250.104H270V132.317V122.808H250.104H230.208V132.317Z" fill="white"/>
<path d="M42.3927 181.063C37.8283 181.94 33.4394 185.89 31.8302 190.513C28.5239 200.198 35.4876 210.029 45.7283 210C49.7075 210 53.1016 208.771 55.7057 206.372L57.1394 205.055L55.179 203.095L53.2479 201.134L52.1068 202.012C49.3272 204.207 46.4305 204.909 43.5046 204.06C41.515 203.475 39.8179 202.041 38.7061 200.023C37.8868 198.56 37.8283 198.238 37.8283 195.37C37.8283 192.503 37.8868 192.181 38.7061 190.718C41.3394 185.978 46.7524 184.954 51.4631 188.319L53.0431 189.46L55.0035 187.207L56.9638 184.983L56.0275 184.164C54.6816 182.964 52.019 181.677 49.9124 181.18C47.9227 180.711 44.4409 180.653 42.3927 181.063Z" fill="white"/>
<path d="M218.24 181.063C215.87 181.531 212.74 183.228 210.926 185.071C205.162 190.806 205.191 200.257 210.955 205.787C212.506 207.308 214.027 208.244 216.309 209.122C218.767 210.088 224.239 210.117 226.813 209.181C232.753 206.986 236.644 201.515 236.644 195.37C236.644 187.119 229.915 180.624 221.488 180.77C220.406 180.799 218.943 180.916 218.24 181.063ZM225.116 187.119C227.047 188.085 228.072 189.109 229.008 191.011C230.149 193.293 230.383 195.341 229.798 197.653C228.657 202.129 225.146 204.792 220.962 204.353C216.339 203.885 213.237 200.257 213.237 195.37C213.237 191.098 215.256 188.114 219.06 186.68C220.523 186.124 223.624 186.359 225.116 187.119Z" fill="white"/>
<path d="M65.1855 195.195V209.415H68.2578H71.33V204.879V200.344H73.7585L76.1577 200.374L79.2007 204.879L82.2144 209.415H85.8718H89.4999L86.1059 204.411C84.204 201.661 82.7411 199.408 82.7703 199.35C87.6273 196.336 88.7685 194.375 88.5344 189.665C88.3296 185.773 86.574 183.257 83.0337 181.853C81.5414 181.238 80.8685 181.18 73.3196 181.092L65.1855 181.004V195.195ZM80.4881 187.265C81.717 188.055 82.2729 189.138 82.2729 190.689C82.2729 192.24 81.717 193.322 80.4881 194.112C79.8444 194.551 78.9081 194.668 75.514 194.727L71.33 194.844V190.689V186.534L75.514 186.651C78.9081 186.71 79.8444 186.827 80.4881 187.265Z" fill="white"/>
<path d="M97.3707 195.224V209.415H108.05H118.73V206.635V203.855H111.123H103.515V200.93V198.004H110.098H116.682V195.224V192.444H110.098H103.515V189.518V186.593H111.123H118.73V183.813V181.033H108.05H97.3707V195.224Z" fill="white"/>
<path d="M130.697 195.253L124.64 209.444L127.859 209.356L131.077 209.269L132.306 206.196L133.535 203.124L139.533 203.036L145.561 202.978L146.819 206.196L148.077 209.415H151.354H154.631L148.604 195.224L142.576 181.033H139.65L136.724 181.063L130.697 195.253ZM139.738 197.36C137.778 197.389 136.139 197.389 136.081 197.302C135.964 197.184 138.217 191.391 139.27 189.08C139.562 188.407 139.738 188.67 141.435 192.796L143.249 197.272L139.738 197.36Z" fill="white"/>
<path d="M159.985 183.813V186.593H164.228H168.471V198.004V209.415H171.543H174.615V198.004V186.593H179.004H183.393V183.813V181.033H171.689H159.985V183.813Z" fill="white"/>
<path d="M191.585 195.224V209.415H194.658H197.73V195.224V181.033H194.658H191.585V195.224Z" fill="white"/>
<path d="M245.13 195.224V209.415H248.202H251.274L251.333 200.578L251.42 191.742L258.121 200.578L264.821 209.415H267.425H270V195.224V181.033H266.928H263.856L263.797 189.577L263.709 198.15L257.272 189.606L250.835 181.063L247.997 181.033H245.13V195.224Z" fill="white"/>
</g>
<defs>
<clipPath id="clip0_330_17">
<rect width="300" height="300" fill="white"/>
</clipPath>
</defs>
</svg>
