<svg width="30" height="32" viewBox="0 0 30 32" fill="none" xmlns="http://www.w3.org/2000/svg">
<path d="M22.9425 5.54073C21.9708 5.54073 21.1831 6.35558 21.1831 7.35989C21.1831 8.36508 21.9708 9.17993 22.9425 9.17993C23.9134 9.17993 24.7011 8.36508 24.7011 7.35989C24.7011 6.35558 23.9134 5.54073 22.9425 5.54073Z" fill="white"/>
<path d="M15.1231 20.4125C12.5132 20.4125 10.3901 18.2162 10.3901 15.5173C10.3901 12.8175 12.5132 10.6211 15.1231 10.6211C17.7321 10.6211 19.8553 12.8175 19.8553 15.5173C19.8553 18.2162 17.7321 20.4125 15.1231 20.4125ZM15.1231 7.87398C11.0489 7.87398 7.73438 11.3027 7.73438 15.5173C7.73438 19.731 11.0489 23.1597 15.1231 23.1597C19.1965 23.1597 22.5109 19.731 22.5109 15.5173C22.5109 11.3027 19.1965 7.87398 15.1231 7.87398Z" fill="white"/>
<path d="M9.01077 2.91988C5.59792 2.91988 2.82183 5.79159 2.82183 9.32202V21.7123C2.82183 25.2428 5.59792 28.1145 9.01077 28.1145H20.9884C24.4012 28.1145 27.1781 25.2428 27.1781 21.7123V9.32202C27.1781 5.79159 24.4012 2.91988 20.9884 2.91988H9.01077ZM20.9884 31.0344H9.01077C4.04115 31.0344 0 26.8523 0 21.7123V9.32202C0 4.18118 4.04115 -5.954e-05 9.01077 -5.954e-05H20.9884C25.9571 -5.954e-05 30 4.18118 30 9.32202V21.7123C30 26.8523 25.9571 31.0344 20.9884 31.0344Z" fill="white"/>
</svg>
