<svg width="420" height="223" viewBox="0 0 420 223" fill="none" xmlns="http://www.w3.org/2000/svg">
<g filter="url(#filter0_d_276_18)">
<path d="M73.5803 5.68557C62.2684 7.10568 50.3198 11.6598 40.2811 18.3197C34.8455 21.8944 26.5207 29.9744 22.6521 35.361C17.2655 43.0002 13.4949 51.7657 11.3402 61.9514C10.4098 66.3096 10.2139 68.6112 10.2139 77.1319C10.165 88.2479 10.9974 93.8794 13.8377 102.645C22.0155 127.668 44.5904 145.003 73.5803 148.578C75.8329 148.872 78.6731 149.117 79.7994 149.117H81.9051V77.1319V5.14691L79.3587 5.19588C77.9386 5.24485 75.3432 5.44072 73.5803 5.68557Z" fill="white"/>
<path d="M86.8022 77.0829V149.117H88.9079C94.4415 149.117 104.088 147.403 110.944 145.15C132.001 138.344 148.357 122.477 154.87 102.645C157.71 93.8794 158.542 88.2479 158.493 77.1319C158.493 68.6112 158.298 66.3096 157.367 61.9514C155.212 51.7657 151.442 43.0002 146.055 35.361C142.187 29.9744 133.862 21.8944 128.426 18.3197C117.212 10.8763 104.039 6.2732 91.3564 5.34279L86.8022 5V77.0829Z" fill="white"/>
<path d="M166.622 77.8664V145.199H185.23H203.839L203.937 108.619L204.084 72.0391L232.486 108.521L260.937 144.954L277.44 145.101L293.942 145.199V77.8664V10.5335H275.334H256.726L256.628 45.8894L256.481 81.2453L229.058 45.9874L201.586 10.7784L184.104 10.6315L166.622 10.5335V77.8664Z" fill="white"/>
<path d="M301.288 77.8664V145.199H355.644H410V129.284V113.369H374.252H338.505V77.8664V42.3636H374.252H410V26.4486V10.5335H355.644H301.288V77.8664Z" fill="white"/>
<path d="M343.402 77.8664V93.7814H376.701H410V77.8664V61.9514H376.701H343.402V77.8664Z" fill="white"/>
<path d="M29.0674 159.449C21.4281 160.918 14.0827 167.529 11.3894 175.266C5.85588 191.475 17.5106 207.929 34.6499 207.88C41.3097 207.88 46.9901 205.823 51.3484 201.808L53.7479 199.604L50.467 196.323L47.235 193.042L45.3252 194.511C40.6731 198.184 35.8251 199.359 30.9282 197.939C27.5983 196.96 24.7581 194.56 22.8972 191.182C21.5261 188.733 21.4281 188.194 21.4281 183.395C21.4281 178.596 21.5261 178.058 22.8972 175.609C27.3045 167.676 36.3638 165.962 44.2479 171.594L46.8922 173.504L50.1732 169.733L53.4541 166.011L51.8871 164.64C49.6345 162.632 45.1783 160.478 41.6525 159.645C38.3226 158.862 32.4952 158.764 29.0674 159.449Z" fill="white"/>
<path d="M323.373 159.449C319.407 160.233 314.167 163.073 311.131 166.158C301.484 175.756 301.533 191.573 311.18 200.828C313.775 203.375 316.321 204.942 320.141 206.411C324.254 208.027 333.412 208.076 337.721 206.509C347.662 202.836 354.175 193.679 354.175 183.395C354.175 169.586 342.912 158.715 328.809 158.96C326.997 159.009 324.548 159.205 323.373 159.449ZM334.881 169.586C338.113 171.202 339.827 172.916 341.394 176.099C343.304 179.919 343.695 183.346 342.716 187.215C340.806 194.707 334.93 199.164 327.927 198.429C320.19 197.645 314.999 191.573 314.999 183.395C314.999 176.246 318.378 171.251 324.744 168.851C327.193 167.921 332.383 168.313 334.881 169.586Z" fill="white"/>
<path d="M67.2144 183.102V206.901H72.3561H77.4979V199.31V191.72H81.5624L85.5779 191.769L90.6707 199.31L95.7145 206.901H101.836H107.908L102.227 198.527C99.0444 193.924 96.596 190.153 96.6449 190.055C104.774 185.011 106.684 181.73 106.292 173.846C105.949 167.333 103.011 163.122 97.0857 160.772C94.5882 159.743 93.4619 159.645 80.8278 159.498L67.2144 159.351V183.102ZM92.8253 169.831C94.882 171.153 95.8125 172.965 95.8125 175.56C95.8125 178.156 94.882 179.968 92.8253 181.29C91.748 182.024 90.181 182.22 84.5005 182.318L77.4979 182.514V175.56V168.607L84.5005 168.803C90.181 168.9 91.748 169.096 92.8253 169.831Z" fill="white"/>
<path d="M121.081 183.151V206.901H138.954H156.828V202.249V197.596H144.096H131.364V192.7V187.803H142.382H153.4V183.151V178.498H142.382H131.364V173.601V168.705H144.096H156.828V164.052V159.4H138.954H121.081V183.151Z" fill="white"/>
<path d="M176.857 183.199L166.72 206.95L172.107 206.803L177.493 206.656L179.55 201.514L181.607 196.372L191.646 196.225L201.733 196.127L203.839 201.514L205.945 206.901H211.429H216.914L206.826 183.151L196.738 159.4H191.841L186.945 159.449L176.857 183.199ZM191.988 186.725C188.707 186.774 185.965 186.774 185.867 186.627C185.671 186.431 189.442 176.736 191.205 172.867C191.695 171.741 191.988 172.181 194.829 179.086L197.865 186.578L191.988 186.725Z" fill="white"/>
<path d="M225.875 164.052V168.705H232.976H240.076V187.803V206.901H245.218H250.36V187.803V168.705H257.705H265.05V164.052V159.4H245.463H225.875V164.052Z" fill="white"/>
<path d="M278.762 183.151V206.901H283.904H289.046V183.151V159.4H283.904H278.762V183.151Z" fill="white"/>
<path d="M368.376 183.151V206.901H373.518H378.66L378.757 192.112L378.904 177.323L390.118 192.112L401.332 206.901H405.691H410V183.151V159.4H404.858H399.716L399.618 173.699L399.472 188.047L388.698 173.748L377.925 159.449L373.175 159.4H368.376V183.151Z" fill="white"/>
</g>
<defs>
<filter id="filter0_d_276_18" x="0" y="0" width="420" height="222.88" filterUnits="userSpaceOnUse" color-interpolation-filters="sRGB">
<feFlood flood-opacity="0" result="BackgroundImageFix"/>
<feColorMatrix in="SourceAlpha" type="matrix" values="0 0 0 0 0 0 0 0 0 0 0 0 0 0 0 0 0 0 127 0" result="hardAlpha"/>
<feOffset dy="5"/>
<feGaussianBlur stdDeviation="5"/>
<feComposite in2="hardAlpha" operator="out"/>
<feColorMatrix type="matrix" values="0 0 0 0 0 0 0 0 0 0 0 0 0 0 0 0 0 0 0.72 0"/>
<feBlend mode="normal" in2="BackgroundImageFix" result="effect1_dropShadow_276_18"/>
<feBlend mode="normal" in="SourceGraphic" in2="effect1_dropShadow_276_18" result="shape"/>
</filter>
</defs>
</svg>
