<svg width="139" height="20" viewBox="0 0 139 20" fill="none" xmlns="http://www.w3.org/2000/svg">
<g clip-path="url(#clip0_144_1166)">
<path d="M3.00885 10.6619L10.8135 13.5741V16.6306L0.539795 12.1902V10.0963L3.00885 10.6619ZM10.8135 8.29123L3.00885 11.2515L0.539795 11.781V9.67511L10.8135 5.2467V8.29123Z" fill="white"/>
<path d="M28.2896 9.29003V10.1926C28.2896 11.5163 28.113 12.7076 27.7597 13.7665C27.4065 14.8174 26.9046 15.712 26.2542 16.45C25.6038 17.1881 24.8289 17.7537 23.9296 18.1468C23.0304 18.5399 22.0307 18.7365 20.9307 18.7365C19.8467 18.7365 18.851 18.5399 17.9437 18.1468C17.0444 17.7537 16.2656 17.1881 15.6072 16.45C14.9487 15.712 14.4389 14.8174 14.0775 13.7665C13.7162 12.7076 13.5355 11.5163 13.5355 10.1926V9.29003C13.5355 7.9583 13.7162 6.76696 14.0775 5.71601C14.4389 4.66508 14.9447 3.77057 15.5952 3.0325C16.2455 2.28642 17.0204 1.71683 17.9196 1.32372C18.827 0.93062 19.8226 0.73407 20.9066 0.73407C22.0066 0.73407 23.0063 0.93062 23.9056 1.32372C24.8049 1.71683 25.5797 2.28642 26.2301 3.0325C26.8886 3.77057 27.3944 4.66508 27.7477 5.71601C28.1091 6.76696 28.2896 7.9583 28.2896 9.29003ZM24.9413 10.1926V9.26596C24.9413 8.31128 24.8531 7.47293 24.6764 6.75092C24.4998 6.02088 24.2388 5.40715 23.8936 4.90976C23.5482 4.41237 23.1227 4.03932 22.6168 3.79062C22.111 3.53391 21.541 3.40555 20.9066 3.40555C20.2642 3.40555 19.6942 3.53391 19.1963 3.79062C18.7065 4.03932 18.2889 4.41237 17.9437 4.90976C17.5985 5.40715 17.3335 6.02088 17.1488 6.75092C16.9722 7.47293 16.8838 8.31128 16.8838 9.26596V10.1926C16.8838 11.1392 16.9722 11.9776 17.1488 12.7076C17.3335 13.4376 17.5985 14.0554 17.9437 14.5608C18.297 15.0581 18.7225 15.4353 19.2204 15.6919C19.7182 15.9487 20.2884 16.077 20.9307 16.077C21.5731 16.077 22.1431 15.9487 22.641 15.6919C23.1388 15.4353 23.5563 15.0581 23.8936 14.5608C24.2388 14.0554 24.4998 13.4376 24.6764 12.7076C24.8531 11.9776 24.9413 11.1392 24.9413 10.1926Z" fill="white"/>
<path d="M33.9745 8.25513V18.4958H30.7948V5.47534H33.7818L33.9745 8.25513ZM33.4686 11.5163H32.5292C32.5372 10.5696 32.6656 9.71121 32.9146 8.94106C33.1635 8.1709 33.5127 7.50905 33.9624 6.95549C34.4201 6.40194 34.9621 5.97675 35.5884 5.67992C36.2147 5.38309 36.9132 5.23468 37.6841 5.23468C38.3104 5.23468 38.8765 5.32292 39.3823 5.49941C39.8882 5.67591 40.3218 5.95669 40.6831 6.34177C41.0525 6.72686 41.3334 7.23227 41.5261 7.85802C41.7269 8.47575 41.8274 9.23788 41.8274 10.1444V18.4958H38.6236V10.1204C38.6236 9.52669 38.5352 9.05738 38.3586 8.71241C38.19 8.36745 37.941 8.12276 37.6119 7.97836C37.2907 7.83395 36.8933 7.76175 36.4194 7.76175C35.9297 7.76175 35.5 7.86203 35.1308 8.0626C34.7694 8.25513 34.4643 8.52388 34.2154 8.86886C33.9745 9.21382 33.7898 9.61092 33.6613 10.0602C33.5328 10.5094 33.4686 10.9948 33.4686 11.5163Z" fill="white"/>
<path d="M50.4871 18.7365C49.4995 18.7365 48.6122 18.576 47.8253 18.2552C47.0384 17.9342 46.3679 17.4889 45.8139 16.9193C45.2679 16.3418 44.8464 15.6719 44.5493 14.9097C44.2603 14.1396 44.1157 13.3133 44.1157 12.4308V11.9495C44.1157 10.9467 44.2603 10.0361 44.5493 9.21783C44.8384 8.39152 45.2478 7.68153 45.7778 7.08787C46.3077 6.49421 46.942 6.03692 47.6807 5.71602C48.4195 5.39513 49.2344 5.23468 50.1258 5.23468C51.0491 5.23468 51.8641 5.39111 52.5707 5.70399C53.2773 6.00884 53.8675 6.44206 54.3413 7.00363C54.8149 7.56521 55.1723 8.23909 55.4132 9.02529C55.6541 9.80346 55.7744 10.6659 55.7744 11.6125V12.9483H48.5025V10.7581H52.643V10.5175C52.627 10.0121 52.5306 9.55076 52.354 9.13359C52.1773 8.7084 51.9043 8.37146 51.5349 8.12276C51.1656 7.86605 50.6879 7.73768 50.1016 7.73768C49.6279 7.73768 49.2145 7.84198 48.8612 8.05056C48.5158 8.25113 48.2267 8.53992 47.994 8.91699C47.7691 9.28602 47.6004 9.72725 47.488 10.2407C47.3756 10.7541 47.3195 11.3237 47.3195 11.9495V12.4308C47.3195 12.9764 47.3917 13.4818 47.5362 13.947C47.6888 14.4123 47.9096 14.8175 48.1987 15.1625C48.4958 15.4995 48.849 15.7642 49.2586 15.9566C49.6761 16.1412 50.1498 16.2335 50.6798 16.2335C51.3463 16.2335 51.9484 16.1052 52.4864 15.8484C53.0324 15.5837 53.5062 15.1946 53.9077 14.6811L55.5095 16.3418C55.2365 16.7429 54.8672 17.128 54.4015 17.497C53.9438 17.8661 53.3897 18.1669 52.7394 18.3995C52.0889 18.6242 51.3382 18.7365 50.4871 18.7365Z" fill="white"/>
<path d="M69.529 18.4958H65.7471L65.7713 15.8965H69.529C70.5487 15.8965 71.4039 15.6719 72.0944 15.2226C72.785 14.7654 73.3069 14.1115 73.6602 13.2611C74.0135 12.4027 74.1901 11.3759 74.1901 10.1805V9.27797C74.1901 8.35539 74.0897 7.54112 73.889 6.83514C73.6882 6.12916 73.3912 5.5355 72.9978 5.05415C72.6124 4.5728 72.1345 4.20779 71.5645 3.95908C70.9945 3.71039 70.3399 3.58604 69.6013 3.58604H64.2898V0.974731H69.6013C70.7735 0.974731 71.8415 1.17128 72.8051 1.56438C73.7766 1.95749 74.6157 2.52307 75.3223 3.26114C76.0369 3.99118 76.5829 4.86562 76.9603 5.88447C77.3457 6.90333 77.5384 8.04251 77.5384 9.30204V10.1805C77.5384 11.432 77.3457 12.5712 76.9603 13.5981C76.5829 14.6169 76.0369 15.4914 75.3223 16.2215C74.6157 16.9515 73.7726 17.513 72.793 17.9061C71.8133 18.2992 70.7254 18.4958 69.529 18.4958ZM67.6019 6.16126V18.4958H64.2898V6.16126H67.6019Z" fill="#3179FD"/>
<path d="M85.9693 18.7365C84.9818 18.7365 84.0945 18.576 83.3076 18.2552C82.5207 17.9342 81.8502 17.4889 81.2962 16.9193C80.7502 16.3418 80.3286 15.6719 80.0316 14.9097C79.7425 14.1396 79.598 13.3133 79.598 12.4308V11.9495C79.598 10.9467 79.7425 10.0361 80.0316 9.21783C80.3207 8.39152 80.7301 7.68153 81.2601 7.08787C81.79 6.49421 82.4243 6.03692 83.163 5.71602C83.9018 5.39513 84.7167 5.23468 85.6081 5.23468C86.5314 5.23468 87.3464 5.39111 88.053 5.70399C88.7596 6.00884 89.3497 6.44206 89.8236 7.00363C90.2972 7.56521 90.6546 8.23909 90.8955 9.02529C91.1364 9.80346 91.2567 10.6659 91.2567 11.6125V12.9483H84.132V10.7581H88.1253V10.5175C88.1093 10.0121 88.0129 9.55076 87.8363 9.13359C87.6596 8.7084 87.3866 8.37146 87.0172 8.12276C86.6479 7.86605 86.1702 7.73768 85.5839 7.73768C85.1102 7.73768 84.6968 7.84198 84.3435 8.05056C83.9981 8.25113 83.709 8.53992 83.4763 8.91699C83.2514 9.28602 83.0827 9.72725 82.9703 10.2407C82.8579 10.7541 82.8018 11.3237 82.8018 11.9495V12.4308C82.8018 12.9764 82.874 13.4818 83.0185 13.947C83.1711 14.4123 83.3919 14.8175 83.681 15.1625C83.978 15.4995 84.3313 15.7642 84.7409 15.9566C85.1584 16.1412 85.6321 16.2335 86.1621 16.2335C86.8286 16.2335 87.4307 16.1052 87.9687 15.8484C88.5147 15.5837 88.9885 15.1946 89.39 14.6811L90.9918 16.3418C90.7188 16.7429 90.3495 17.128 89.8837 17.497C89.426 17.8661 88.872 18.1669 88.2217 18.3995C87.5712 18.6242 86.8205 18.7365 85.9693 18.7365Z" fill="#3179FD"/>
<path d="M100.555 14.9338C100.555 14.6611 100.483 14.4164 100.338 14.1997C100.194 13.9831 99.9206 13.7866 99.5191 13.6102C99.1256 13.4256 98.5475 13.2531 97.7847 13.0927C97.1102 12.9483 96.488 12.7678 95.9178 12.5512C95.3478 12.3346 94.8579 12.0738 94.4484 11.769C94.039 11.4561 93.7178 11.0911 93.4849 10.6739C93.2601 10.2487 93.1477 9.75934 93.1477 9.20579C93.1477 8.66829 93.2641 8.16287 93.4969 7.68955C93.7298 7.20821 94.0671 6.78702 94.5086 6.426C94.9503 6.05698 95.4883 5.76817 96.1227 5.55959C96.7569 5.34298 97.4715 5.23468 98.2665 5.23468C99.3746 5.23468 100.326 5.41518 101.121 5.77619C101.924 6.13721 102.538 6.6346 102.964 7.26837C103.389 7.89413 103.602 8.6001 103.602 9.3863H100.422C100.422 9.04133 100.342 8.72846 100.181 8.44767C100.029 8.16688 99.7921 7.94226 99.4709 7.77379C99.1498 7.59729 98.7442 7.50905 98.2545 7.50905C97.8128 7.50905 97.4394 7.58125 97.1343 7.72565C96.8372 7.87006 96.6124 8.05859 96.4599 8.29123C96.3073 8.52388 96.231 8.7806 96.231 9.0614C96.231 9.26998 96.2711 9.45851 96.3514 9.62698C96.4398 9.78742 96.5803 9.93584 96.773 10.0722C96.9657 10.2086 97.2267 10.333 97.5558 10.4453C97.8931 10.5576 98.3066 10.6659 98.7965 10.7702C99.768 10.9627 100.615 11.2194 101.338 11.5403C102.068 11.8532 102.639 12.2704 103.048 12.7918C103.458 13.3133 103.662 13.9792 103.662 14.7895C103.662 15.367 103.538 15.8965 103.289 16.3779C103.04 16.8512 102.679 17.2643 102.205 17.6173C101.731 17.9703 101.165 18.247 100.507 18.4477C99.8483 18.6402 99.1055 18.7365 98.2785 18.7365C97.0822 18.7365 96.0704 18.5239 95.2433 18.0987C94.4163 17.6654 93.79 17.12 93.3645 16.462C92.9389 15.7962 92.7262 15.1064 92.7262 14.3923H95.7733C95.7974 14.8977 95.9339 15.3029 96.1828 15.6077C96.4317 15.9126 96.7449 16.1331 97.1222 16.2696C97.5077 16.398 97.9132 16.462 98.3387 16.462C98.8205 16.462 99.226 16.398 99.5551 16.2696C99.8844 16.1331 100.133 15.9527 100.302 15.728C100.471 15.4954 100.555 15.2307 100.555 14.9338Z" fill="#3179FD"/>
<path d="M109.263 0V18.4958H106.083V0H109.263ZM117.429 5.47532L111.756 11.8411L108.685 14.9578L107.673 12.491L110.046 9.50662L113.587 5.47532H117.429ZM114.177 18.4958L111.154 13.8989L113.274 11.8411L117.862 18.4958H114.177Z" fill="#3179FD"/>
<path d="M126.655 0.974731L120.03 20H117.609L124.234 0.974731H126.655Z" fill="white"/>
<path d="M136.471 11.1432L128.546 8.26717V5.23468L139 9.67511V11.793L136.471 11.1432ZM128.546 13.6102L136.483 10.6498L139 10.0842V12.1902L128.546 16.6306V13.6102Z" fill="white"/>
</g>
<defs>
<clipPath id="clip0_144_1166">
<rect width="139" height="20" fill="white"/>
</clipPath>
</defs>
</svg>
