<svg width="36" height="29" viewBox="0 0 36 29" fill="none" xmlns="http://www.w3.org/2000/svg">
<path d="M33.5153 23.0212C33.5153 24.5021 32.299 25.7073 30.8033 25.7073H5.19763C3.70094 25.7073 2.48468 24.5021 2.48468 23.0212V5.31181C2.48468 4.95166 2.55761 4.60839 2.68834 4.29419L13.5194 16.4615C14.6523 17.7343 16.2864 18.4658 18 18.4658C19.7146 18.4658 21.3477 17.7343 22.4815 16.4615L33.3116 4.29419C33.4423 4.60839 33.5153 4.95166 33.5153 5.31181V23.0212ZM30.8033 2.62661C31.0154 2.62661 31.221 2.65287 31.4199 2.69883L20.6182 14.8352C19.9561 15.579 19.0013 16.0057 18 16.0057C16.9987 16.0057 16.0448 15.579 15.3827 14.8352L4.58001 2.69883C4.77893 2.65287 4.98544 2.62661 5.19763 2.62661H30.8033ZM30.8033 0.166504H5.19763C2.33119 0.166504 0 2.47467 0 5.31181V23.0212C0 25.8593 2.33119 28.1665 5.19763 28.1665H30.8033C33.6687 28.1665 36 25.8593 36 23.0212V5.31181C36 2.47467 33.6687 0.166504 30.8033 0.166504Z" fill="white"/>
</svg>
